<mxfile host="app.diagrams.net" modified="2023-06-25T17:55:51.203Z" agent="Mozilla/5.0 (Macintosh; Intel Mac OS X 10_15_7) AppleWebKit/537.36 (KHTML, like Gecko) Chrome/114.0.0.0 Safari/537.36" version="21.5.0" etag="CNpF2_QFAZELBFx_ZL4L" type="github">
  <diagram name="Страница 1" id="T022AqJQ4kKMCQU2YXok">
    <mxGraphModel>
      <root>
        <mxCell id="0" />
        <mxCell id="1" parent="0" />
      </root>
    </mxGraphModel>
  </diagram>
</mxfile>
